<svg width="81" height="27" viewBox="0 0 81 27" fill="none" xmlns="http://www.w3.org/2000/svg">
<path d="M52.952 20.741C52.567 20.741 52.215 20.884 51.896 21.171V18H51V24.729H51.896V22.852C51.896 22.374 51.958 22.037 52.084 21.841C52.211 21.647 52.431 21.55 52.745 21.55C52.989 21.55 53.166 21.619 53.277 21.759C53.387 21.898 53.442 22.123 53.442 22.434V24.729H54.338V22.351C54.338 21.809 54.227 21.414 54.004 21.167C53.741 20.883 53.39 20.741 52.952 20.741Z" fill="white"/>
<path d="M44.044 21.158C43.685 20.786 43.28 20.6 42.829 20.6C42.306 20.6 41.87 20.794 41.522 21.182C41.174 21.57 41 22.054 41 22.636C41 23.228 41.174 23.722 41.522 24.118C41.873 24.506 42.316 24.699 42.853 24.699C43.278 24.699 43.675 24.527 44.044 24.181V24.588H44.944V20.708H44.044V21.158ZM43.793 23.556C43.588 23.785 43.32 23.899 42.988 23.899C42.677 23.899 42.42 23.781 42.215 23.544C42.016 23.311 41.916 23.008 41.916 22.636C41.916 22.288 42.019 21.996 42.223 21.759C42.43 21.526 42.688 21.409 42.996 21.409C43.323 21.409 43.588 21.524 43.793 21.755C43.997 21.992 44.1 22.292 44.1 22.656C44.1 23.02 43.997 23.32 43.793 23.556Z" fill="white"/>
<path d="M70.5363 23.7413C70.3903 23.8473 70.2063 23.9003 69.9823 23.9003C69.6963 23.9003 69.4603 23.8073 69.2773 23.6223C69.0943 23.4333 68.9903 23.1793 68.9673 22.8613H71.7473L71.7513 22.6493C71.7513 22.2203 71.6753 21.8553 71.5273 21.5513L71.5303 21.5503C71.5173 21.5263 71.5043 21.5033 71.4913 21.4793C71.4523 21.4083 71.4093 21.3393 71.3613 21.2753C71.3483 21.2573 71.3343 21.2423 71.3203 21.2253C71.2993 21.1993 71.2803 21.1723 71.2573 21.1483C71.2463 21.1353 71.2333 21.1253 71.2213 21.1133C71.2043 21.0953 71.1863 21.0773 71.1683 21.0603C71.1253 21.0203 71.0813 20.9823 71.0343 20.9473C71.0283 20.9423 71.0223 20.9373 71.0153 20.9323C70.8983 20.8463 70.7693 20.7773 70.6293 20.7253C70.6193 20.7213 70.6083 20.7183 70.5983 20.7143C70.5513 20.6973 70.5043 20.6823 70.4553 20.6703C70.4093 20.6573 70.3643 20.6473 70.3183 20.6383C70.3123 20.6373 70.3073 20.6363 70.3013 20.6353C70.0673 20.5913 69.8273 20.5893 69.5953 20.6243C69.3523 20.6573 69.1333 20.7293 68.9393 20.8433C68.7433 20.9513 68.5733 21.0923 68.4513 21.2633C68.4403 21.2793 68.4323 21.2953 68.4223 21.3103C68.3783 21.3703 68.3393 21.4333 68.3033 21.4973C68.2843 21.5303 68.2693 21.5633 68.2523 21.5963C68.2433 21.6163 68.2323 21.6353 68.2233 21.6563C67.9833 22.1553 67.9353 22.6823 68.0863 23.2073C68.1623 23.5753 68.3173 23.8883 68.5563 24.1433C68.9073 24.5153 69.3713 24.7013 69.9513 24.7013C70.1523 24.7013 70.3393 24.6803 70.5123 24.6383C70.6853 24.5953 70.8453 24.5283 70.9943 24.4363C71.1433 24.3453 71.2823 24.2283 71.4123 24.0863C71.5433 23.9443 71.6663 23.7733 71.7833 23.5743L71.0263 23.1523C70.8433 23.4383 70.6793 23.6353 70.5363 23.7413ZM69.1543 21.8293C69.2093 21.7413 69.2763 21.6663 69.3553 21.6043C69.4333 21.5423 69.5203 21.4943 69.6163 21.4603C69.7113 21.4273 69.8143 21.4113 69.9233 21.4113C70.4013 21.4113 70.7023 21.6503 70.8273 22.1283H69.0263C69.0553 22.0163 69.0983 21.9173 69.1543 21.8293Z" fill="white"/>
<path d="M61.008 22.779L60.004 20.6H59L61 24.747L63.016 20.6H62.008L61.008 22.779Z" fill="white"/>
<path d="M35.362 20.849H34.159L32.896 22.104V18H32V24.729H32.896V23.235L33.039 23.092L34.322 24.729H35.485L33.677 22.478L35.362 20.849Z" fill="white"/>
<path d="M67.2965 11.519C67.1135 11.519 66.9525 11.588 66.8385 11.725L65.2565 13.467C64.9585 13.788 64.3625 14.361 63.6285 14.361H61.6115L67.5255 5.33C67.8235 4.711 67.3885 4 66.7005 4H58.8605C58.6315 4 58.4255 4.161 58.3335 4.367L57.3475 7.164C57.2555 7.484 57.3935 7.943 57.8985 7.943C58.0815 7.943 58.2415 7.874 58.3565 7.737L59.9385 5.994C60.4655 5.49 60.9005 5.1 61.5655 5.1H63.0095L57.0955 14.178C56.7975 14.774 57.2335 15.462 57.8985 15.462H66.3335C66.5625 15.462 66.7695 15.301 66.8605 15.095L67.8465 12.298C67.9615 11.977 67.8005 11.519 67.2965 11.519Z" fill="white"/>
<path d="M44.47 4.95002C44.47 4.65202 44.218 4.40002 43.874 4.40002H42.659C42.109 4.40002 41.857 4.65202 41.857 4.95002C41.857 5.56903 42.224 5.68403 41.605 7.35703L39.61 12.859L37.708 7.35703C37.02 5.38603 37.547 5.56903 37.547 4.95002C37.547 4.65202 37.295 4.40002 36.722 4.40002H32.596C32.252 4.40002 32 4.65202 32 4.95002C32 5.56903 32.963 5.38603 33.627 7.35703L36.195 14.922C36.401 15.495 36.928 15.862 37.501 15.862H38.716C39.312 15.862 39.817 15.472 40 14.968L42.774 7.35703C43.553 5.24802 44.47 5.56903 44.47 4.95002Z" fill="white"/>
<path d="M32.828 13.284C32.897 13.147 32.92 12.894 32.713 12.688C32.648 12.622 32.464 12.511 32.256 12.57C32.15 12.593 32.044 12.653 31.948 12.754C31.834 12.872 31.726 12.997 31.603 13.106C30.951 13.683 30.174 13.983 29.319 14.081C28.901 14.129 28.502 14.122 28.122 14.054C27.177 13.868 26.462 13.318 25.951 12.55C23.911 9.502 33.31 11.588 32.255 7.599C31.728 5.605 29.206 4 26.662 4C23.269 4 21 6.728 21 10.098C21 13.467 23.865 16.195 27.395 16.195C30.1 16.195 32.094 14.659 32.828 13.284ZM25.172 10.831C24.507 8.585 24.988 5.1 26.662 5.1C28.45 5.1 29.71 8.585 27.441 9.479C26.432 9.868 25.584 10.166 25.172 10.831Z" fill="white"/>
<path d="M80.828 13.284C80.897 13.147 80.92 12.894 80.713 12.688C80.648 12.622 80.464 12.511 80.256 12.57C80.15 12.593 80.044 12.653 79.948 12.754C79.834 12.872 79.726 12.997 79.603 13.106C78.951 13.683 78.174 13.983 77.319 14.081C76.901 14.129 76.502 14.122 76.122 14.054C75.177 13.868 74.462 13.318 73.951 12.55C71.911 9.502 81.31 11.588 80.255 7.599C79.728 5.605 77.206 4 74.662 4C71.269 4 69 6.728 69 10.098C69 13.467 71.865 16.195 75.395 16.195C78.1 16.195 80.094 14.659 80.828 13.284ZM73.172 10.831C72.507 8.585 72.988 5.1 74.662 5.1C76.45 5.1 77.71 8.585 75.441 9.479C74.432 9.868 73.584 10.166 73.172 10.831Z" fill="white"/>
<path d="M55.828 13.284C55.897 13.147 55.92 12.894 55.713 12.688C55.648 12.622 55.464 12.511 55.256 12.57C55.15 12.593 55.044 12.653 54.948 12.754C54.834 12.872 54.726 12.997 54.603 13.106C53.951 13.683 53.174 13.983 52.319 14.081C51.901 14.129 51.502 14.122 51.122 14.054C50.177 13.868 49.462 13.318 48.951 12.55C46.911 9.502 56.31 11.588 55.255 7.599C54.728 5.605 52.206 4 49.662 4C46.269 4 44 6.728 44 10.098C44 13.467 46.865 16.195 50.395 16.195C53.1 16.195 55.094 14.659 55.828 13.284ZM48.172 10.831C47.507 8.585 47.988 5.1 49.662 5.1C51.45 5.1 52.71 8.585 50.441 9.479C49.432 9.868 48.584 10.166 48.172 10.831Z" fill="white"/>
<path d="M15.5557 16.8782C12.4959 16.8397 8.21197 18.6451 8.24106 16.3283C8.25362 15.3284 9.20401 14.8252 10.7428 15.2446C11.2273 15.3657 11.9975 15.5184 12.8844 15.5295C16.9451 15.5805 20.2942 13.0483 20.3344 9.84556C20.3496 8.63166 19.8552 7.46736 19.0346 6.55498C17.9598 5.49141 17.0988 5.00956 16.7977 4.85977C16.3423 4.64703 15.8503 4.48384 15.3358 4.36138C15.8118 3.7263 16.6638 2.5419 16.7757 2.06727C16.9964 1.13597 16.2491 0.920573 15.5293 1.13955C14.6649 1.40372 11.8777 1.55974 10.9528 1.54813C10.0279 1.53651 10.0171 2.39545 10.0171 2.39545L9.99013 4.54528C8.3583 5.07883 7.03699 6.05132 6.27943 7.28591C5.74581 6.53515 4.97736 6.08847 4.24407 5.94725C2.79648 5.66706 1.19561 6.84105 1.06422 8.46453C1.01291 9.20594 1.50339 9.88715 2.24565 10.0305C3.02282 10.1813 3.79506 9.68891 3.95227 8.87682C4.10304 8.09965 3.87356 7.57873 4.3667 7.49091C4.82191 7.39762 5.59907 8.10643 5.59793 9.31251C5.58749 9.42739 5.58103 9.54332 5.57956 9.66031C5.55659 11.4902 6.59441 13.1044 8.23898 14.1841C6.8635 14.4528 5.70882 15.2964 5.69051 16.7543C5.67184 18.2412 7.06053 19.2307 8.37643 19.2472C11.3782 19.2849 15.8208 18.5406 15.7742 22.2583C15.7595 23.4302 15.0294 24.6222 13.7715 24.6064C12.5986 24.5916 11.8367 23.781 11.8511 22.6371C11.8608 21.8652 11.4791 20.4023 9.8203 20.3814C8.73339 20.3678 7.86568 21.215 7.85205 22.3009C7.82798 24.2177 10.2936 25.9358 14.0403 25.9828C17.786 26.0299 21.0934 24.5843 21.135 21.2665C21.1666 18.7507 18.5585 16.9159 15.5557 16.8782ZM7.66071 9.74144C7.69031 7.38363 10.1221 5.50201 13.0909 5.53928C16.0606 5.57657 18.4444 7.51865 18.4148 9.87646C18.3852 12.2343 15.9534 14.1159 12.9836 14.0786C10.0149 14.0414 7.63111 12.0993 7.66071 9.74144Z" fill="white"/>
<path d="M12.974 13.553C15.445 13.553 17.448 11.962 17.448 10C17.448 10 16.446 10.492 15.757 10.592C15.069 10.692 14.192 10.126 13.249 10.059C12.305 9.992 11.706 10.658 10.607 10.603C9.508 10.547 8.5 10 8.5 10C8.5 11.962 10.503 13.553 12.974 13.553Z" fill="white"/>
</svg>
